<?xml version="1.0" encoding="UTF-8"?><svg id="Layer_1" xmlns="http://www.w3.org/2000/svg" viewBox="0 0 44.33 20.08"><defs><style>.cls-1{fill:#355870;}.cls-2{fill:#749dba;}</style></defs><path class="cls-1" d="M23.05,12.55c0-.35,.16-.49,.3-.46,.26,.05,.58,.42,.58,.87,0,.08,0,.17-.02,.23-.03,.12,0,.25,.09,.34,.11,.09,.28,.18,.52,.2,.42,.04,.56-.47,.56-.76,0-.45-.37-1.11-1.49-1.28-.74-.11-1.66,.21-1.66,.98,0,1.03,2.23,1.84,2.23,2.35,0,.18-.15,.22-.29,.22-.24,0-.72-.22-.72-.42,0-.03,0-.06,.02-.09,.07-.14,.05-.32-.08-.41-.1-.08-.24-.15-.43-.2-.44-.11-.68,.16-.68,.51,0,.46,.71,.88,1.49,.88,.97,0,1.54-.41,1.54-.77,0-.81-1.96-1.25-1.96-2.18Z"/><path class="cls-1" d="M25.23,15.45s0,.05,.04,.05h.23v-.37c0,.22-.12,.23-.28,.32Zm3.85-.1c-.5-.29-1.43-.8-1.43-1.68,0-.21,.18-.54,.38-.58,.21-.04,.27,.34,.27,.34,.23,.16,.82-.62,.82-1.26,0-.4-.29-.61-.63-.55-.77,.13-1.41,1.79-1.65,2.31l-.06-4.09c0-.1-.08-.19-.15-.15-.29,.18-.8,.41-1.28,.44-.05,0-.15,.05-.15,.17,0,.13,.31,.35,.31,1.7v3.49h1.57s.06-.03,.03-.05c-.16-.08-.28-.1-.28-.32v-.67c.02-.08,.04-.15,.08-.13,.23,.19,.47,.59,.63,.85,.09,.15,.06,.18-.1,.27-.03,.02,0,.05,.03,.05h1.54c.1,0,.14-.1,.06-.15Z"/><path class="cls-1" d="M29.45,15.42s0,.08,.03,.08h.24v-.58c0,.33-.11,.37-.27,.5Zm1.88-.03c-.16-.17-.28-.21-.28-.59v-3.55c0-.07-.09-.1-.15-.05-.31,.25-.64,.3-.87,.34-.56,.12-.71-.19-.71-.02,0,.2,.39,.41,.39,1.24v2.73h1.57s.06-.06,.03-.1Z"/><path class="cls-1" d="M34.89,13.83c-.36,.57-.65,.71-.94,.71-.49,0-.9-.62-1.07-1.22-.02-.08,.06-.13,.14-.1,.26,.11,.26,.16,.65,.19,.74,.05,1.36-.98,1.36-1.59,0-.53-.78-1.04-1.55-1.01-1.24,.05-1.96,1.62-1.96,2.47,0,.57,.36,2.2,1.88,2.2,.71,0,1.58-.99,1.58-1.54,0-.11,0-.25-.09-.13Zm-2.09-1.04c0-.72,.49-1.57,.73-1.59,.24-.02,.32,.36,.32,.59,0,.43-.43,1.3-1.04,1.18,0-.06,0-.13,0-.18Z"/><path class="cls-1" d="M36.36,11.57c0-.25,.16-.34,.3-.32,.26,.04,.58,.33,.58,.67,0,.03,0,.07,0,.1-.02,.22,.07,.45,.25,.58,.09,.07,.21,.14,.35,.19,.42,.15,.56-.3,.56-.54,0-.37-.37-1.06-1.49-1.24-.74-.12-1.66,.22-1.66,.87,0,.86,2.23,1.95,2.23,2.8,0,.29-.15,.38-.29,.37-.24-.01-.72-.34-.72-.66,0-.07,.01-.15,.04-.2,.08-.14,.1-.31,0-.45-.1-.15-.27-.28-.54-.31-.44-.04-.68,.39-.68,.86,0,.61,.71,1.22,1.49,1.22,.97,0,1.54-.69,1.54-1.22,0-1.18-1.96-2.05-1.96-2.72Z"/><g><path class="cls-1" d="M33.55,9.32c.08,.56-.31,1.08-.88,1.17-.27,.04-.52-.02-.73-.15-.1,.28-.35,.49-.67,.54-.16,.02-.31,0-.44-.05-.19,.21-.46,.37-.77,.41-.5,.08-.98-.14-1.25-.53-.63,.06-1.18-.29-1.26-.81s.35-1.02,.97-1.15c.08-.39,.43-.71,.89-.78,.39-.06,.77,.08,.99,.34,.17-.19,.41-.33,.7-.37,.5-.08,.96,.16,1.15,.55,.04-.01,.08-.02,.12-.02,.57-.09,1.1,.29,1.19,.85Z"/><path class="cls-2" d="M3.55,9.83s0,.08,.04,.08h.22v-.55c0,.31-.11,.33-.26,.47Zm2.07-3.48c-.16-.02-.37,.04-.58,.16v-1.67c0-.08-.06-.13-.13-.11-.27,.13-.9,.36-1.28,.27-.05,0-.11,0-.11,.08,0,.09,.29,.14,.29,1.15v3.69h1.85c.78-.02,1.64-.4,1.64-1.39s-.9-2.09-1.68-2.18Zm.15,3.23c-.08,.08-.23,.08-.31-.01-.17-.2-.4-.61-.43-1.18v-.15c.03-.58,.27-1.05,.44-1.28,.08-.1,.21-.09,.28,.04,.17,.28,.44,.89,.44,1.47s-.26,.92-.43,1.11Z"/><path class="cls-2" d="M10.65,9c0-.18,.31-.9,.31-1.4s-.38-1.09-.76-1.08c-.41,0-1.01,.91-1.16,1.52v-1.38c0-.09-.07-.15-.13-.11-.34,.19-.54,.22-.67,.22-.48-.01-.62-.25-.73-.11-.12,.15,.3,.59,.3,1.41v1.5c0,.21-.11,.22-.26,.31-.02,.02,0,.05,.03,.05h1.68s.06-.03,.04-.04c-.15-.08-.26-.09-.26-.29v-.09c.05-.39,.49-2.44,1.06-2.46,.02,0,.06,.12,.06,.17,0,.46-.61,.79-.61,1.29,0,.65,.62,.8,1.01,.85,.1,.01,.19-.05,.15-.12-.03-.06-.06-.15-.06-.23Z"/><path class="cls-2" d="M14.26,8.89c-.33,.42-.6,.5-.87,.52-.43,.03-.8-.25-.97-.61-.03-.07,.04-.13,.11-.12,.15,.02,.34,.1,.63,.06,.69-.08,1.22-.66,1.22-1.34,0-.59-.73-1.16-1.43-1.08-1.15,.13-1.82,1.74-1.82,2.36,0,.42,.33,1.24,1.74,1.24,.66,0,1.47-.59,1.47-.95,0-.08,0-.16-.08-.07Zm-1.94-.53c0-.55,.45-1.51,.68-1.54,.23-.03,.3,.42,.3,.66,0,.45-.39,1.11-.97,1.02,0-.04,0-.09,0-.14Z"/><path class="cls-2" d="M17.71,8.53c-.33,.51-.6,.64-.87,.65-.44,.03-.81-.38-.98-.84-.03-.08,.05-.14,.13-.12,.15,.05,.34,.12,.63,.08,.69-.09,1.22-.79,1.22-1.45,0-.58-.73-1.03-1.43-.94-1.15,.14-1.82,1.63-1.82,2.34,0,.48,.33,1.67,1.74,1.67,.66,0,1.47-.83,1.47-1.29,0-.1,0-.21-.08-.1Zm-1.94-.67c0-.62,.45-1.5,.68-1.53,.22-.03,.3,.36,.3,.6,0,.43-.39,1.19-.97,1.08,0-.05,0-.11,0-.15Z"/><path class="cls-2" d="M21.16,8.33c-.2,.44-.56,1.09-.96,1.09-.25,0-.52-.15-.17-1.12,.61-1.38,.91-1.97,1.52-2.73-.33,0-.72,0-1.02,0-.19,0-.28,0-.47,0h-.02s-.43,.01-.68,.02c-.06,0-.12,0-.15,0-.39,.01-1.14,.19-1.14,.78,0,.22,.21,.64,.76,.58,.55-.07,.63-.38,.63-.38-.22,.02-.37-.27-.29-.54,.1-.32,1.19-.69,.67,.36-.66,1.11-1.21,2.32-1.72,3.5h3.21v-1.52c0-.12-.12-.16-.17-.06Z"/><path class="cls-2" d="M21.81,9.8s0,.11,.03,.11h.22v-.8c0,.44-.1,.49-.25,.68Zm1.74,0c-.15-.19-.26-.24-.26-.65v-3.46c0-.05-.08-.09-.14-.07-.29,.12-.6,.15-.81,.14-.52-.01-.62-.15-.62-.04,0,.13,.34,.17,.34,.82v3.38h1.46s.06-.07,.03-.11Z"/><path class="cls-2" d="M26.85,8.76c-.33,.37-.6,.46-.87,.44-.43-.03-.8-.53-.97-1.08-.03-.09,.07-.16,.15-.1,.16,.1,.32,.2,.59,.24,.69,.1,1.22-.33,1.22-1,0-.59-.73-1.34-1.43-1.44-1.15-.15-1.82,.92-1.82,1.82,0,.6,.33,2.27,1.74,2.27,.66,0,1.47-.66,1.47-1.05,0-.08,0-.18-.08-.1Zm-1.94-1.25c0-.71,.45-1.34,.68-1.3,.23,.04,.3,.43,.3,.65,0,.4-.39,1.12-.97,.83,0-.06,0-.12,0-.18Z"/><path class="cls-2" d="M24.98,4.6c-.02,.21-.23,.36-.47,.33-.07,0-.14-.03-.19-.07-.06,.07-.15,.1-.25,.09-.04,0-.08-.02-.11-.04-.17,.17-.43,.27-.71,.24-.05,0-.1-.02-.15-.03-.18,.17-.47,.26-.78,.22-.19-.02-.36-.09-.49-.18-.15,.06-.32,.09-.5,.06s-.33-.08-.46-.16c-.14-.09-.31-.1-.46-.03-.18,.09-.4,.13-.62,.11-.57-.07-.98-.53-.92-1.04,.03-.27,.18-.49,.4-.64,0-.06,0-.12,0-.17,.06-.48,.48-.86,.97-.85,.21,0,.4,.07,.55,.18,.17-.48,.67-.79,1.21-.73,.48,.06,.86,.39,.98,.82,.06,0,.12,0,.2,.02,.33,.08,.54,.41,.5,.75,0,0,0,.02,0,.03,.1-.06,.22-.09,.33-.07,.32,.04,.55,.36,.51,.72h0s.06,0,.09,0c.23,.03,.4,.22,.38,.43Z"/></g><g><path class="cls-2" d="M34.91,17.4h0c-.06,.06-.14,.11-.21,.11-.22,.03-.45-.12-.46-.35,0,0,0-.02,0-.03,0-.13,.07-.25,.18-.34,.06-.04,.13-.07,.2-.07,.07,0,.14,.02,.21,.05,.02,.01,.04,.02,.05,.03,.01,0,.02,.02,.03,.02,.07,.07,.11,.14,.11,.22,0,0,0,.02,0,.03,0,.01,0,.03,0,.04,0,.01,0,.03,0,.04,0,.01,0,.02-.02,.02h-.03s-.03,0-.05,0c0,0-.01,0-.02,0,0,0,0,0,0,0,.02-.17-.07-.25-.13-.29-.09-.06-.21-.06-.29,.01-.05,.04-.08,.08-.1,.13-.03,.07-.02,.15,.03,.22,.05,.07,.11,.11,.19,.13,.05,.01,.12,0,.16-.03h.01s-.01-.02-.01-.02c0,0-.01-.01-.03-.02-.02-.02-.16-.12-.16-.12,0,0,0,0,0,0,0,0,0,0,0,0,0,0,0,0,0,0,.01-.02,.02-.03,.03-.04,0,0,0,0,0,0,0,0,0,0,0-.01,0-.01,.01-.01,.02,0,0,0,.02,.01,.03,.02,0,0,.01,.01,.02,.02,.08,.06,.17,.13,.25,.19,0,0,.01,0,.01,.01,0,0,0,.01,0,.01-.01,.01-.03,.03-.04,.04Z"/><path class="cls-2" d="M35.64,18.06s-.01,0-.02,0c-.01,0-.02,0-.03-.01-.01,0-.02,0-.03-.01-.01,0-.02,0-.04-.02,0,0,0,0,0,0,0,0-.01,0-.01,0,0,0-.01,0-.02-.02,0-.01,0-.03,0-.04,0-.01,0-.03,0-.04,0-.04-.02-.07-.02-.1,0-.03-.01-.07-.02-.1,0-.02,0-.04-.01-.06h0s0,0,0,0c0,0-.02,0-.03-.01-.02,0-.04-.02-.06-.03-.01,0-.13-.05-.15-.06h0s0,0,0,0c0,0-.1,.23-.1,.24,0,.01,0,.02-.01,.03h0s0,0,0,0h0s-.03-.01-.05-.02c-.03-.01-.05-.02-.06-.02,0,0,0,0,0,0,0,0,0,0,0-.01,0-.02,.03-.06,.05-.12,.05-.12,.12-.29,.14-.33,.01-.02,.02-.05,.03-.08,0-.02,.01-.04,.02-.06,0,0,0-.02,.01-.03,0,0,0-.01,0-.02,0-.01,.01-.03,.02-.05,0,0,0,0,0,0,0,0,0,0,0,0,.01,0,.09,.04,.13,.05,.03,.01,.15,.06,.24,.1,.04,.01,.07,.03,.09,.04,.05,.02,.1,.06,.12,.1,.02,.04,.02,.1,0,.17-.01,.04-.04,.08-.07,.11-.04,.04-.09,.06-.15,.05h-.02s0,.01,0,.01c0,.04,.02,.08,.03,.12,0,.03,.01,.05,.01,.08,0,.02,0,.04,0,.06v.06s.02,.02,.02,.03c0,0,0,0,0,0,0,0,0,0,0,.01Zm-.08-.5s.07,0,.1-.03c.02-.02,.03-.05,.03-.07,0-.04-.02-.06-.05-.08,0,0,0,0,0,0,0,0-.01,0-.02-.01-.03-.01-.05-.02-.07-.03-.04-.02-.09-.03-.13-.05l-.05-.02s-.02,0-.03-.01c0,0-.01,0-.02,0,0,0,0,0,0,0h0s0,0,0,0c-.02,.04-.04,.09-.05,.13,0,.01-.01,.03-.02,.04h0s0,.01,0,.01c0,0,0,0,0,0,0,0,0,0,0,0,.03,.01,.06,.03,.09,.04,0,0,0,0,0,0,0,0,.01,0,.02,0,0,0,.01,0,.02,0,.01,0,.02,0,.03,.01s.02,0,.03,.01c.01,0,.03,.01,.04,.02,.03,.01,.05,.02,.08,.03Z"/><path class="cls-2" d="M36.54,18.2h0s0,0-.02,0c0,0,0,0,0,0h0s-.04,0-.07,0c-.01,0-.02,0-.03,0,0,0-.01,0-.02,0,0,0,0,0-.01,0,0,0,0,0-.01-.01,0-.02-.03-.13-.03-.14,0,0,0,0,0,0-.01,0-.02,0-.03,0,0,0-.28-.04-.28-.04h0s0,0,0,0c-.01,.02-.03,.05-.04,.07-.01,.02-.03,.04-.04,.06,0,0,0,0,0,0s0,0,0,0h-.02s-.03,0-.05,0c0,0-.02,0-.02,0-.01,0-.02,0-.04,0,0,0,0,0-.01,0,0,0,0,0,0-.01,.02-.03,.03-.05,.05-.08h0c.07-.12,.31-.51,.32-.52,0-.01,.04-.06,.04-.07,0-.01,.02-.01,.02-.01,0,0,0,0,.01,0,0,0,0,0,.01,0,.01,0,.02,0,.03,0,0,0,.02,0,.03,0,.01,0,.02,0,.04,0,0,0,0,0,.01,0,0,0,0,0,0,0,0,.01,0,.03,.01,.04,0,.03,.03,.15,.04,.18,0,.03,.01,.05,.02,.08,.01,.07,.08,.36,.09,.39,0,.02,.01,.04,.02,.06,0,0,0,.01,0,.02,0,0,0,.01,0,.02,0,0,0,0,0,0Zm-.21-.31s-.04-.25-.06-.31v-.05s-.07,.11-.1,.18c-.01,.03-.02,.05-.03,.06,0,0-.05,.1-.05,.1,0,0,.03,0,.04,0,.06,0,.12,.02,.17,.03,0,0,.03,0,.03,0Z"/><path class="cls-2" d="M37.41,17.71c-.04,.13-.2,.14-.32,.15-.02,0-.05,0-.07,0-.02,0-.15,.01-.16,.02h-.01s0,.01,0,.01c0,.01,.02,.25,.02,.26,0,.01,0,.02,0,.03h0s0,0,0,0h0s-.03,0-.06,0c-.02,0-.03,0-.04,0,0,0-.02,0-.02,0,0,0-.01,0-.01,0,0,0,0,0,0-.01,0-.02,0-.07,0-.13,0-.13-.02-.31-.02-.35,0-.03,0-.05,0-.08,0-.02,0-.04,0-.06,0,0,0-.02,0-.03,0,0,0-.01,0-.02,0-.02,0-.03,0-.05,0,0,0-.01,0-.01s0,0,0,0c.01,0,.1,0,.14-.01,.04,0,.16-.01,.27-.02,.04,0,.08,0,.1-.01,.06,0,.11,0,.15,.03,.04,.03,.07,.08,.08,.15,0,.05,0,.09-.01,.13Zm-.12-.14s-.05-.04-.09-.04c0,0,0,0,0,0,0,0-.02,0-.02,0-.03,0-.05,0-.08,0-.05,0-.09,0-.14,.01h-.05s-.02,0-.04,0c0,0-.03,0-.03,0v.02s0,.08,.01,.12c0,.02,0,.03,0,.05v.02s.1,0,.13-.01c0,0,0,0,0,0,0,0,.01,0,.02,0,0,0,.01,0,.02,0,.01,0,.02,0,.03,0,.01,0,.02,0,.04,0,.02,0,.03,0,.05,0,.03,0,.06,0,.09-.02,.04-.01,.07-.03,.08-.07,0-.02,0-.06,0-.07Z"/><path class="cls-2" d="M38.37,17.83s0,0,0,.01c-.02,0-.03,.01-.05,.02-.03,.01-.04,.02-.07,.03,0,0,0,0,0,0h0s0-.01,0-.02c0-.02-.02-.05-.02-.07-.01-.05-.03-.1-.05-.15,0-.01,0-.02-.01-.03,0,0,0-.01,0-.02h0s0,0,0,0c0,0-.14,.04-.2,.07-.02,0-.04,.02-.06,.02,0,0-.02,0-.03,.01-.01,0-.02,0-.03,.01-.02,0-.04,.01-.06,.02,0,0,0,0-.01,0,0,0,0,0,0,0h0s0,.01,0,.01c0,0,0,0,0,.01,0,0,0,.01,0,.02,0,.02,.02,.05,.02,.07l.03,.09s0,.02,.01,.04c0,.02,.01,.04,.02,.06,0,0,0,.01,0,.02,0,0,0,0-.02,0-.02,0-.04,.01-.06,.02-.01,0-.03,.01-.04,.01,0,0,0,0-.01,0,0,0,0,0,0,0,0,0,0,0,0-.02h0s-.01-.03-.02-.05c0-.02-.01-.04-.02-.06h0s-.03-.09-.04-.13c0-.03-.02-.05-.03-.08-.02-.04-.03-.09-.05-.13-.02-.05-.04-.1-.05-.16,0-.02-.01-.04-.02-.07,0-.02,0-.02,0-.02,0,0,.07-.03,.12-.04h0s0,0,0,0c0,0,0,0,0,0,0,0,0,0,0,0,0,0,0,0,0,0,0,0,0,0,0,0v.04s.04,.08,.06,.12c0,.02,.01,.04,.02,.05v.02s0,0,.01,.01c0,0,0,0,0,0h0s0,0,0,0c.08-.02,.38-.13,.4-.14h0s0-.01,0-.01c0,0-.02-.06-.02-.08,0,0-.02-.06-.03-.08,0,0,0-.02,0-.03s0-.02,0-.03c0-.01-.01-.03-.02-.04,0,0,0-.01,0-.02,0,0,.07-.03,.09-.03,.02,0,.03,0,.03,.01,0,.01,0,.03,.01,.04,0,.01,0,.02,.01,.04,0,.01,.01,.03,.02,.04,.01,.04,.03,.08,.04,.12,.03,.07,.12,.36,.15,.43Z"/><path class="cls-2" d="M38.69,17.64s0,0,0,0c0,0,0,0,0,0,0,0,0,0,0,0-.02,.01-.05,.03-.08,.04-.01,0-.02,.01-.03,.02h0s0,0,0,0c0,0,0,0,0,0,0,0,0,0,0,0,0,0,0,0,0,0,0-.02-.02-.04-.03-.06-.02-.04-.15-.26-.18-.33-.01-.03-.03-.05-.04-.08-.02-.03-.03-.06-.05-.09,0-.02-.02-.03-.03-.05h0s0-.02-.01-.03c0,0,0-.01,0-.02,0,0,0,0,.01,0h0s.03-.02,.04-.03c.01,0,.03-.01,.04-.02,0,0,0,0,.02,0h0s0,0,0,0c.02,.03,.03,.05,.04,.08,0,.02,.16,.3,.19,.34,0,.02,.11,.2,.11,.21Z"/><path class="cls-2" d="M39.36,16.95s0,0,0,0c0,0,0,.01,0,.01h0c0,.06,0,.11-.01,.15h0s-.01,.05-.02,.07c-.02,.04-.05,.07-.08,.11-.01,.01-.03,.03-.05,.04-.03,.03-.07,.05-.12,.07-.03,.01-.07,.02-.11,.03-.03,0-.07,0-.1,0-.06-.02-.09-.04-.13-.06,0,0,0,0,0,0-.04-.03-.08-.06-.11-.12-.02-.04-.04-.08-.04-.12,0,0,0-.01,0-.02,0-.01,0-.03,0-.04,0-.06,0-.11,.03-.16,.03-.06,.08-.11,.14-.16,.01,0,.02-.02,.03-.02,.06-.04,.12-.06,.19-.07,0,0,.02,0,.03,0,0,0,.02,0,.02,0,.03,0,.06,0,.09,.01,.01,0,.01,0,0,.02,0,.03-.01,.07-.02,.1v.02s0,0,0,0c-.02-.02-.05-.02-.07-.02-.07,0-.13,0-.18,.04-.02,.01-.04,.03-.06,.04-.04,.04-.06,.1-.06,.17,0,.08,.04,.16,.09,.2,.03,.02,.06,.04,.1,.05,.04,0,.08,0,.12,0,.04,0,.07-.03,.1-.05,.03-.02,.05-.05,.07-.1,.02-.03,.03-.07,.03-.12h0s0-.02,0-.03c0,0,0,0,0,0h0s.06-.02,.09-.02c0,0,.01,0,.02,0Z"/><path class="cls-2" d="M40.18,15.83s.03,.04,.04,.06c0,.02,.01,.03,.01,.05,0,0,0,.01,0,.02,0,.02,.02,.06,.01,.08,0,.03-.01,.09-.03,.12-.02,.03-.02,.04-.04,.06,0,0-.01,.02-.02,.03-.01,.02-.03,.04-.04,.06-.01,.02-.02,.04-.03,.05,0,0-.01,.02-.02,.03,0,.01-.01,.02-.02,.03,0,.01-.01,.02-.02,.03,0,.01-.02,.02-.02,.04,0,0,0,0,0,0-.01,.02-.02,.04-.04,.05,0,0,0,0,0,0,0,0-.01,0-.02-.01,0,0,0,0-.01,0,0,0,0,0-.01,0,0,0-.02-.01-.03-.02-.06-.03-.11-.07-.17-.1-.01,0-.02-.01-.04-.02,0,0-.01,0-.02-.01-.02-.01-.04-.03-.06-.04-.03-.02-.07-.04-.11-.07-.04-.03-.08-.05-.12-.07-.02,0-.02-.01-.02-.02,0,0,0-.02,.01-.03,.02-.03,.04-.06,.05-.09,.02-.03,.04-.06,.06-.09,0,0,0-.01,.01-.02,0,0,.01-.02,.02-.03,.03-.05,.04-.06,.07-.11,.02-.03,.06-.08,.08-.09,.04-.03,.09-.05,.14-.06,0,0,.01,0,.02,0,0,0,.01,0,.02,0,.03,0,.06,0,.09,0,.05,0,.09,.02,.13,.04,0,0,0,0,.01,0,0,0,.01,0,.02,0,.04,.02,.08,.06,.11,.1Zm-.2,0s-.09-.04-.15-.04c-.04,0-.08,.01-.11,.03,0,0-.01,0-.02,.01h-.01s-.03,.04-.04,.06c-.04,.05-.07,.1-.1,.14,0,0-.01,.02-.02,.02h0s-.02,.03-.02,.05h0s0,.01,0,.01c0,0,0,0,0,0,0,0,.01,0,.02,.01,.01,0,.03,.02,.05,.03,.03,.02,.06,.04,.09,.06,.06,.04,.13,.08,.22,.14,0,0,0,0,.01,0,0,0,0,0,0,0h0s0,0,0,0c0,0,0,0,0,0,0,0,0,0,0,0,.01-.02,.03-.04,.04-.06,.01-.02,.03-.04,.04-.06h0s.01-.03,.02-.04h0s.02-.04,.02-.05h0c.03-.06,.04-.1,.02-.16-.02-.07-.06-.12-.13-.16Z"/><path class="cls-2" d="M40.66,15.08s.02,.02,.02,.02c0,0-.02,.07-.05,.14-.05,.15-.13,.35-.13,.38,0,.02-.01,.03-.02,.05,0,0,0,.01,0,.02,0,0,0,0-.01,0h0s-.02,0-.03-.01c-.02,0-.04-.01-.06-.02-.04-.01-.07-.02-.11-.03-.03,0-.07-.02-.1-.03-.02,0-.03-.01-.05-.02,0,0-.01,0-.02,0,0,0,0,0,0,0,0,0,0,0,0,0-.02,0-.03-.01-.05-.02-.04-.01-.09-.03-.13-.04-.03,0-.05-.02-.08-.02-.01,0-.03,0-.05-.01-.01,0-.01,0,0-.02,0-.03,.02-.06,.03-.09h0c.03-.09,.13-.37,.15-.43,0,0,0-.02,0-.02,0,0,0-.01,0-.02,0,0,0,0,0-.01,0,0,0,0,0-.01,0,0,.02,0,.04,.01,.02,0,.04,.01,.04,.01,.01,0,.02,0,.03,.01,0,0,0,0,0,.01,0,0,0,0,0,0,0,.01,0,.02-.01,.04,0,.02-.02,.04-.02,.07-.01,.04-.03,.09-.05,.13-.01,.04-.03,.08-.04,.12,0,.02-.01,.03-.02,.05v.03s0,0,0,0c0,0,0,0,0,0,0,0,0,0,0,0,.04,.01,.07,.02,.11,.04h.03s0,0,0,0c.01,0,.02-.02,.02-.02h0s.02-.06,.04-.11c.03-.09,.07-.2,.09-.25,0,0,0,0,0,0,0,0,0,0,0,0,0,0,0,0,0,0,.03,0,.05,.02,.08,.03,0,0,0,0,0,0,.01,0,.01,0,0,.02-.02,.05-.03,.1-.05,.15-.01,.03-.02,.06-.03,.1-.01,.04-.03,.07-.04,.11,0,0,0,.01,0,.02,0,0,0,0,0,0h0s0,.01,0,.01c.03,.02,.16,.05,.16,.05h0s0,0,0,0c0,0,0,0,0,0,0-.02,.02-.04,.02-.06,.02-.04,.03-.08,.05-.13,.01-.04,.03-.07,.04-.11,0-.02,.01-.03,.02-.05h0s.02-.08,.03-.11c0,0,0,0,0,0,0,0,0,0,0,0,.03,0,.05,.01,.09,.02,0,0,.01,0,.02,0Z"/><path class="cls-2" d="M40.62,14.17s.01,0,.02,0c.09,.04,.14,.12,.16,.21,0,0,0,.01,0,.02,0,.06,0,.11,0,.16-.02,.1-.06,.19-.14,.3,0,0-.01,.01-.02,.02,0,0-.01,.01-.02,.02,0,0,0,0,0,0,0,0,0,0,0,0,0,0,0-.01-.01-.02-.02-.03-.04-.07-.05-.09,0,0,0,0,0,0,0,0,0,0,0,0,.09-.08,.13-.18,.14-.31,0-.08-.04-.19-.13-.16-.02,0-.04,.02-.05,.04-.02,.04-.03,.09-.04,.14,0,.03-.01,.07-.02,.1,0,.01,0,.03-.01,.04-.01,.05-.03,.09-.05,.12-.04,.06-.1,.09-.17,.09-.08,0-.12-.05-.14-.1-.03-.05-.04-.09-.04-.14-.01-.17,.04-.3,.1-.37,.01-.01,.02-.02,.03-.03,0,0,.02-.02,.03-.03,0,0,0,0,.01,0,0,0,0,0,0,0,0,0,0,.01,.01,.02h0s.02,.04,.03,.05v.02s.02,.02,0,.03c-.01,.01-.02,.03-.03,.04,0,0,0,.01-.01,.02-.02,.03-.04,.06-.05,.1-.01,.04-.02,.08-.02,.12,0,.03,0,.08,.03,.1,.02,.02,.04,.03,.07,.03,.02,0,.03,0,.04-.03,.03-.04,.03-.07,.04-.11h0s0-.04,.01-.06c.03-.14,.09-.37,.29-.32Z"/><path class="cls-2" d="M40.79,13.86h0s0,0,0,0c0,0,0,0,0,0,0,.02,0,.06,0,.09,0,.01,0,.02,0,.04h0s0,0,0,0c0,0,0,0,0,0,0,0,0,0,0,0,0,0,0,0,0,0-.02,0-.04,0-.07,0-.05,0-.3,.02-.38,.02-.03,0-.06,0-.09,0-.03,0-.07,0-.1,0-.02,0-.04,0-.05,0h0s-.01,0-.02,0c0,0-.01,0-.01-.01,0,0,0,0,0-.01h0s0-.04,0-.05c0-.01,0-.03,0-.04,0,0,0-.01,0-.02h0s0,0,0,0c.03,0,.06,0,.09,0,.02,0,.34-.02,.4-.02,.02,0,.23-.01,.24-.01Z"/><path class="cls-2" d="M40.35,12.96h0c.09,0,.17,.01,.23,.06,.18,.13,.25,.39,.1,.58,0,0-.01,.01-.02,.02-.09,.1-.22,.15-.36,.14-.08,0-.14-.03-.19-.08-.05-.05-.09-.11-.12-.18,0-.02-.01-.04-.02-.06,0-.01,0-.02,0-.04,0-.1,.02-.18,.06-.24,0,0,.01-.02,.02-.02,0-.01,.02-.02,.03-.04s.02-.02,.03-.03c.01,0,.02,0,.03,0,0,0,.01,.01,.02,.02,.01,.01,.03,.02,.04,.04,0,0,0,0,.01,.02,0,0,0,0,0,0-.12,.11-.12,.24-.1,.3,.03,.11,.12,.18,.22,.18,.06,0,.11,0,.16-.03,.07-.03,.11-.11,.13-.18,.01-.08-.01-.15-.05-.22-.03-.04-.09-.07-.14-.09h-.02s0,.01,0,.01c0,0,0,.02,0,.03,0,.03,.04,.19,.04,.2,0,0,0,0,0,0,0,0,0,0,0,0,0,0,0,0,0,0-.02,0-.03,0-.05,.01,0,0,0,0-.01,0,0,0-.01,0-.01,0-.01,0-.02,0-.02-.01,0-.01,0-.02,0-.03,0,0,0-.02,0-.03-.02-.1-.04-.21-.06-.31,0,0,0-.01,0-.02,0,0,.01,0,.02,0,.02,0,.04,0,.06,0Z"/><path class="cls-2" d="M40.28,12.04s.02,0,.02-.01v.02s.05,.08,.05,.1c0,0,0,.01,0,.03v.02c-.06,.09-.11,.17-.15,.26-.03,.07-.17,.32-.18,.32l-.02,.03h.03s.08-.05,.11-.07c0,0,.02,0,.02-.01,.03-.02,.07-.03,.1-.05,.03-.02,.07-.03,.1-.05,.02-.01,.1-.05,.12-.06,.02,0,.03-.01,.05-.02h.01s0,0,0,0c0,.01,.01,.03,.02,.04,0,.02,.02,.04,.03,.06h0s0,.01,0,.01c0,0,0,0,0,0,0,0-.02,0-.02,.01-.02,0-.23,.1-.43,.2h-.03s-.03,.03-.04,.04c0,0-.02,.01-.03,.02-.03,.02-.06,.03-.09,.05h-.01s0,0-.01,.01c0,0-.01,0-.01,0,0,0,0,0,0,0l-.02-.04s-.03-.06-.04-.09h0s0,0,0,0c0-.01,0-.02,0-.03,0,0,0-.02,.02-.03,.02-.04,.05-.1,.06-.12,.05-.07,.19-.33,.22-.38,0,0,0,0,0-.01,0-.01,.02-.02,.02-.04v-.02s-.01,0-.01,0c-.01,0-.07,.03-.13,.06h-.02s-.09,.06-.12,.07c-.02,0-.06,.03-.1,.05-.04,.02-.08,.04-.09,.04,0,0,0,0-.01,0-.02-.04-.03-.08-.05-.11,0,0,0,0,0-.01,0,0,.04-.02,.08-.04,.04-.02,.1-.04,.13-.06,.03-.02,.06-.03,.09-.04,.01,0,.02-.01,.04-.02,0,0,.02-.01,.04-.02,.07-.03,.18-.09,.21-.1,.02-.01,.05-.02,.07-.04Z"/></g></svg>