<?xml version="1.0" encoding="UTF-8"?><svg id="Layer_1" xmlns="http://www.w3.org/2000/svg" viewBox="0 0 72 32.61"><defs><style>.cls-1{fill:#355870;}.cls-2{fill:#749dba;}</style></defs><path class="cls-1" d="M37.5,20.56c0-.59,.27-.84,.5-.79,.44,.09,.99,.71,.99,1.48,0,.14,0,.28-.03,.39-.06,.21-.01,.43,.15,.57,.19,.16,.47,.31,.89,.35,.72,.06,.95-.8,.95-1.29,0-.76-.62-1.89-2.53-2.17-1.25-.18-2.82,.35-2.82,1.67,0,1.74,3.78,3.13,3.78,4,0,.3-.25,.38-.49,.37-.41-.02-1.22-.38-1.23-.72,0-.05,0-.11,.03-.16,.12-.24,.08-.54-.13-.7-.17-.13-.41-.25-.74-.33-.76-.18-1.15,.27-1.15,.87,0,.77,1.21,1.49,2.54,1.49,1.65,0,2.61-.69,2.61-1.31,0-1.38-3.32-2.12-3.32-3.71Z"/><path class="cls-1" d="M41.21,25.5s0,.08,.08,.08h.4v-.63c0,.37-.21,.39-.47,.54Zm6.54-.17c-.86-.5-2.42-1.37-2.42-2.85,0-.36,.31-.92,.65-.99,.35-.07,.46,.59,.46,.59,.38,.27,1.39-1.06,1.39-2.14,0-.69-.49-1.03-1.08-.93-1.3,.22-2.39,3.03-2.81,3.93l-.1-6.95c0-.17-.13-.33-.25-.26-.49,.3-1.36,.69-2.18,.75-.09,0-.26,.08-.26,.28,0,.23,.53,.6,.53,2.89v5.93h2.68c.07,0,.1-.05,.06-.08-.27-.14-.47-.16-.47-.54v-1.13c.03-.14,.07-.26,.13-.23,.4,.32,.8,1,1.06,1.44,.15,.26,.1,.31-.16,.45-.04,.03-.01,.08,.06,.08h2.61c.16,0,.24-.17,.1-.25Z"/><path class="cls-1" d="M48.37,25.45c-.06,.05-.01,.13,.06,.13h.4v-.98c0,.56-.19,.62-.46,.85Zm3.19-.05c-.26-.3-.47-.35-.47-1v-6.03c0-.12-.15-.18-.25-.09-.53,.42-1.09,.5-1.48,.58-.94,.2-1.2-.33-1.2-.03,0,.34,.67,.69,.67,2.1v4.64h2.67c.08,0,.1-.11,.06-.18Z"/><path class="cls-1" d="M57.62,22.75c-.61,.97-1.11,1.21-1.59,1.21-.83,0-1.53-1.05-1.83-2.07-.04-.14,.1-.23,.23-.17,.44,.19,.45,.27,1.1,.32,1.27,.09,2.32-1.66,2.32-2.69,0-.91-1.33-1.76-2.63-1.71-2.11,.08-3.34,2.75-3.34,4.21,0,.97,.61,3.74,3.19,3.74,1.21,0,2.69-1.68,2.69-2.61,0-.19-.01-.43-.15-.22Zm-3.56-1.77c0-1.22,.83-2.67,1.24-2.7,.41-.03,.54,.61,.54,1.01,0,.73-.72,2.2-1.77,2-.01-.1-.01-.21-.01-.31Z"/><path class="cls-1" d="M60.11,18.9c0-.42,.27-.58,.5-.54,.44,.08,.99,.57,.99,1.13,0,.06,0,.11,0,.17-.04,.38,.11,.76,.42,.99,.16,.12,.35,.23,.59,.32,.72,.25,.95-.51,.95-.92,0-.63-.62-1.81-2.53-2.11-1.25-.2-2.82,.38-2.82,1.48,0,1.46,3.78,3.32,3.78,4.75,0,.5-.25,.64-.49,.63-.41-.02-1.22-.58-1.23-1.12,0-.12,.02-.25,.07-.34,.13-.24,.16-.53,0-.76-.18-.25-.46-.48-.91-.53-.76-.07-1.15,.66-1.15,1.47,0,1.04,1.21,2.07,2.54,2.07,1.65,0,2.61-1.17,2.61-2.07,0-2-3.32-3.49-3.32-4.62Z"/><g><path class="cls-1" d="M55.34,15.09c.14,.95-.53,1.83-1.5,1.98-.45,.07-.89-.03-1.24-.26-.16,.47-.59,.84-1.14,.92-.26,.04-.52,0-.75-.08-.33,.36-.78,.62-1.31,.7-.85,.13-1.66-.24-2.12-.89-1.06,.09-2-.5-2.14-1.38s.6-1.74,1.65-1.96c.14-.66,.73-1.21,1.51-1.33,.67-.1,1.3,.14,1.68,.58,.28-.33,.7-.56,1.19-.64,.85-.13,1.64,.28,1.95,.94,.06-.02,.13-.03,.2-.04,.97-.15,1.88,.5,2.02,1.45Z"/><path class="cls-2" d="M4.37,15.95c-.04,.06,0,.14,.07,.14h.37v-.93c0,.53-.19,.57-.44,.79Zm3.52-5.92c-.27-.03-.63,.07-.99,.26v-2.85c0-.13-.11-.23-.22-.18-.45,.23-1.54,.61-2.18,.46-.08-.02-.19,0-.19,.13,0,.15,.49,.23,.49,1.96v6.27h3.15c1.33-.03,2.79-.68,2.79-2.36s-1.54-3.56-2.86-3.7Zm.26,5.49c-.14,.14-.4,.13-.52-.02-.29-.34-.68-1.04-.73-2.01v-.25c.04-.99,.47-1.79,.74-2.17,.14-.17,.35-.15,.48,.07,.29,.47,.75,1.51,.75,2.5s-.44,1.56-.73,1.89Z"/><path class="cls-2" d="M16.43,14.53c0-.31,.52-1.52,.52-2.38s-.64-1.85-1.29-1.83c-.7,.01-1.72,1.55-1.97,2.57v-2.35c0-.16-.12-.25-.22-.2-.57,.33-.92,.37-1.14,.37-.82-.02-1.05-.42-1.25-.18-.21,.25,.51,1,.51,2.4v2.55c0,.35-.19,.38-.44,.52-.04,.03-.01,.08,.06,.08h2.85c.07,0,.11-.04,.07-.08-.25-.13-.44-.15-.44-.5v-.16c.08-.67,.83-4.14,1.81-4.17,.04,0,.1,.21,.1,.29,0,.77-1.04,1.34-1.04,2.2,0,1.11,1.05,1.36,1.71,1.45,.18,.02,.32-.09,.26-.21-.05-.11-.1-.25-.1-.38Z"/><path class="cls-2" d="M22.56,14.35c-.56,.71-1.03,.85-1.48,.88-.73,.05-1.36-.42-1.65-1.04-.06-.12,.06-.22,.19-.21,.25,.03,.57,.17,1.08,.1,1.18-.14,2.08-1.13,2.08-2.27,0-1.01-1.23-1.97-2.44-1.83-1.96,.22-3.09,2.96-3.09,4.01,0,.71,.56,2.1,2.96,2.1,1.12,0,2.49-1,2.49-1.61,0-.13-.01-.28-.14-.13Zm-3.3-.91c0-.94,.77-2.57,1.15-2.62,.38-.05,.51,.71,.51,1.13,0,.77-.67,1.89-1.64,1.73-.02-.07-.02-.16-.02-.23Z"/><path class="cls-2" d="M28.42,13.73c-.56,.87-1.03,1.08-1.48,1.11-.74,.05-1.38-.65-1.67-1.43-.05-.13,.08-.24,.22-.2,.26,.08,.57,.2,1.07,.13,1.18-.15,2.08-1.35,2.08-2.47,0-.98-1.23-1.74-2.44-1.6-1.96,.24-3.1,2.77-3.1,3.98,0,.81,.56,2.83,2.96,2.83,1.12,0,2.49-1.41,2.49-2.19,0-.16-.01-.35-.14-.16Zm-3.3-1.14c0-1.05,.77-2.54,1.15-2.6,.38-.05,.51,.62,.51,1.02,0,.74-.67,2.02-1.64,1.84-.01-.08-.01-.18-.01-.26Z"/><path class="cls-2" d="M34.3,13.4c-.34,.75-.94,1.85-1.63,1.85-.42,0-.89-.25-.29-1.9,1.03-2.34,1.54-3.35,2.57-4.65-.56,0-1.22,0-1.73,0-.32,0-.48,0-.79,.02h-.03s-.72,.02-1.16,.04c-.11,0-.21,0-.26,0-.67,.02-1.93,.33-1.93,1.33,0,.38,.35,1.1,1.29,.98,.93-.11,1.07-.65,1.07-.65-.37,.03-.64-.45-.49-.92,.17-.54,2.02-1.17,1.14,.62-1.12,1.88-2.05,3.94-2.92,5.95h5.45v-2.58c0-.2-.2-.27-.29-.11Z"/><path class="cls-2" d="M35.39,15.89c-.05,.08-.01,.2,.05,.2h.37v-1.36c0,.75-.18,.83-.42,1.16Zm2.96,0c-.25-.32-.44-.4-.44-1.11v-5.89c0-.09-.14-.16-.23-.11-.49,.2-1.03,.25-1.38,.24-.88-.02-1.05-.26-1.05-.07,0,.22,.57,.28,.57,1.38v5.74h2.48c.07,0,.1-.11,.06-.19Z"/><path class="cls-2" d="M43.96,14.14c-.56,.62-1.03,.78-1.48,.74-.73-.06-1.36-.9-1.65-1.83-.05-.15,.13-.26,.26-.18,.26,.17,.55,.34,1,.41,1.18,.18,2.08-.57,2.08-1.7,0-1-1.23-2.28-2.44-2.44-1.96-.25-3.1,1.57-3.1,3.09,0,1.03,.56,3.87,2.96,3.87,1.12,0,2.49-1.12,2.49-1.78,0-.14-.01-.31-.14-.18Zm-3.3-2.13c0-1.2,.77-2.27,1.15-2.2,.38,.06,.51,.74,.51,1.11,0,.68-.67,1.91-1.64,1.4-.01-.1-.01-.21-.01-.31Z"/><path class="cls-2" d="M40.79,7.06c-.04,.36-.4,.61-.79,.56-.12-.01-.23-.05-.32-.11-.1,.11-.26,.18-.42,.16-.07,0-.13-.03-.19-.06-.29,.29-.73,.46-1.21,.4-.09-.01-.17-.03-.25-.05-.31,.28-.8,.44-1.33,.37-.32-.04-.61-.15-.84-.3-.26,.1-.55,.15-.86,.11s-.56-.13-.78-.28c-.23-.16-.53-.17-.78-.05-.31,.15-.67,.22-1.05,.18-.96-.11-1.66-.9-1.56-1.77,.05-.45,.31-.84,.69-1.08,0-.1,0-.2,0-.3,.1-.82,.82-1.46,1.65-1.45,.35,0,.67,.11,.94,.3,.3-.81,1.14-1.34,2.06-1.24,.82,.09,1.46,.67,1.66,1.4,.11,0,.21,.01,.33,.04,.56,.14,.91,.7,.85,1.27,0,.02,0,.03,0,.05,.17-.1,.37-.15,.57-.12,.55,.06,.93,.61,.86,1.23h0s.1,.01,.15,.02c.4,.05,.69,.37,.64,.73Z"/></g><g><path class="cls-2" d="M57.65,28.81h0c-.11,.11-.24,.18-.36,.19-.37,.04-.76-.21-.79-.6,0-.02,0-.03,0-.05,0-.22,.12-.43,.31-.57,.11-.08,.22-.12,.34-.12,.12,0,.24,.03,.35,.09,.04,.02,.07,.04,.09,.06,.02,.01,.03,.03,.05,.04,.12,.11,.18,.24,.19,.38,0,.02,0,.03,0,.05,0,.02,0,.05,0,.07,0,.02,0,.05,0,.07,0,.02-.01,.03-.04,.03h-.05s-.06,0-.09,0c-.01,0-.02,0-.04,0,0,0,0,0,0,0,.03-.28-.12-.43-.21-.49-.16-.11-.36-.1-.5,.02-.08,.07-.13,.14-.17,.22-.05,.12-.03,.26,.05,.37,.08,.11,.19,.18,.32,.22,.08,.02,.2-.01,.28-.05h.03s-.02-.03-.02-.03c0,0-.02-.02-.04-.04-.04-.03-.26-.2-.27-.2,0,0,0-.01,0-.01,0,0,0,0,0-.01,0,0,0,0,0,0,.02-.03,.03-.05,.05-.07,0,0,0-.01,.01-.02,0,0,.01-.01,.01-.02,.01-.02,.02-.02,.04,0,.01,.01,.03,.02,.04,.03,.01,0,.02,.02,.04,.03,.13,.1,.3,.22,.43,.32,0,0,.02,.01,.02,.02,0,0-.01,.02-.01,.02-.02,.02-.05,.05-.07,.07Z"/><path class="cls-2" d="M58.89,29.94s-.02,0-.04-.01c-.02,0-.04-.01-.05-.02-.02,0-.03-.01-.05-.02-.02,0-.03-.01-.07-.03,0,0,0,0-.01,0,0,0-.02,0-.02,0-.02,0-.02-.01-.03-.03,0-.02-.01-.05-.01-.07,0-.02,0-.05-.01-.07-.01-.06-.03-.12-.04-.18-.01-.06-.02-.11-.04-.17,0-.04-.02-.07-.02-.11h0s0-.01,0-.01c-.02,0-.03-.01-.05-.02-.04-.02-.07-.03-.1-.04-.02,0-.23-.09-.25-.1h-.02s0,0,0,0c0,.01-.17,.39-.18,.41,0,.02-.01,.04-.02,.06h0s0,0,0,.01h0s-.05-.02-.09-.04c-.06-.02-.09-.04-.1-.04-.01,0-.02,0-.02,0,0,0,0,0,0-.02,.01-.03,.05-.11,.09-.2,.09-.21,.21-.49,.24-.56,.02-.04,.03-.08,.05-.14,.01-.03,.03-.07,.04-.1,0-.01,.01-.03,.02-.04,0-.01,0-.02,.01-.03,.01-.03,.02-.05,.03-.08,0-.01,.01-.02,.01-.02,0,0,0,0,0,0,.02,0,.15,.06,.21,.09,.05,.02,.25,.11,.42,.17,.06,.03,.12,.05,.16,.06,.09,.04,.16,.09,.2,.16,.04,.07,.04,.17,0,.29-.02,.08-.07,.13-.12,.18-.06,.07-.15,.09-.25,.08h-.03s0,.02,0,.02c.01,.07,.03,.13,.05,.21,.01,.04,.02,.09,.02,.13,0,.03,0,.07,.02,.1l.02,.1s0,.03,.01,.05c0,0,0,0,0,0,0,0,0,.01,0,.02Zm-.13-.85c.07,.01,.12,0,.17-.06,.03-.03,.05-.08,.04-.12,0-.07-.03-.11-.09-.14,0,0,0,0-.01,0-.01,0-.02-.01-.04-.02-.04-.02-.08-.04-.12-.05-.07-.03-.15-.06-.22-.09l-.09-.03s-.04-.02-.06-.02c0,0-.02,0-.03,0,0,0,0,0-.01,0h-.02s0,.01,0,.01c-.03,.07-.06,.15-.09,.22,0,.02-.02,.05-.03,.07v.02s0,0,0,0c0,0,0,0,0,0,0,0,0,0,.01,0,.05,.02,.11,.05,.16,.07,0,0,0,0,0,0,0,0,.02,0,.03,.01,.01,0,.02,0,.03,.01,.02,0,.04,.01,.06,.02s.04,.01,.06,.02c.02,0,.05,.02,.07,.03,.05,.02,.09,.03,.14,.05Z"/><path class="cls-2" d="M60.43,30.18h0s-.02,0-.03,0c0,0-.01,0-.02,0h0s-.07-.01-.11-.02c-.02,0-.04,0-.06,0-.01,0-.02,0-.03,0,0,0-.01,0-.02,0-.01,0-.02,0-.02-.02,0-.03-.05-.23-.05-.23,0,0,0-.01,0-.01-.02,0-.04,0-.06,0,0,0-.47-.07-.48-.07h-.01s0,0,0,0c-.02,.04-.05,.08-.08,.11-.02,.03-.05,.07-.07,.1,0,0,0,0-.01,0s0,0-.01,0h-.03s-.05-.01-.08-.02c-.01,0-.03,0-.04,0-.02,0-.04,0-.06,0-.01,0-.02,0-.02,0,0,0,0,0,0-.02,.03-.05,.06-.09,.09-.14v-.02c.14-.19,.54-.85,.55-.87,.01-.02,.06-.1,.07-.11,.02-.02,.03-.03,.03-.03,0,0,.01,0,.02,0,0,0,.01,0,.02,0,.02,0,.04,0,.06,0,.02,0,.03,0,.05,0,.02,0,.04,0,.06,0,0,0,.01,0,.02,0,0,0,0,0,0,0,0,.02,.01,.05,.02,.07,.01,.05,.06,.26,.07,.3,0,.04,.02,.09,.03,.13,.02,.11,.13,.61,.15,.66,0,.03,.02,.06,.03,.1,0,.01,0,.03,.01,.04,0,.01,0,.02,0,.03,0,0,0,0,0,0Zm-.36-.53c-.01-.05-.07-.42-.1-.52l-.02-.09s-.1,.18-.16,.3c-.02,.04-.04,.08-.05,.09,0,.01-.09,.16-.09,.16,0,0,.06,0,.07,0,.1,.01,.2,.03,.29,.04,0,0,.06,0,.05,0Z"/><path class="cls-2" d="M61.91,29.34c-.07,.22-.34,.23-.55,.25-.04,0-.08,0-.11,0-.03,0-.25,.02-.27,.03h-.02s0,.02,0,.02c0,.02,.03,.42,.03,.44,0,.02,0,.04,0,.06h0s0,0,0,.01h0s-.06,0-.1,0c-.03,0-.06,0-.08,0-.02,0-.03,0-.03,0-.01,0-.02,0-.02,0,0,0,0,0,0-.02,0-.03,0-.11-.01-.22-.01-.22-.03-.53-.04-.6,0-.04,0-.09-.02-.14,0-.03,0-.07,0-.1,0-.02,0-.03,0-.05,0-.01,0-.02,0-.04,0-.03,0-.05,0-.08,0-.02,0-.02,0-.02s0,0,.01,0c.02,0,.16-.02,.23-.02,.06,0,.28-.02,.45-.04,.07,0,.13-.01,.17-.02,.1,0,.19,0,.25,.05,.07,.04,.11,.13,.14,.25,.01,.08,0,.15-.03,.22Zm-.2-.23c-.04-.06-.08-.07-.15-.07,0,0-.01,0-.02,0-.01,0-.03,0-.04,0-.05,0-.09,0-.13,0-.08,0-.16,.02-.24,.02h-.09s-.04,.01-.06,.02c0,0-.05,0-.05,0v.03c0,.07,.01,.13,.02,.21,0,.03,0,.05,0,.08v.03s.16-.01,.22-.02c0,0,0,0,0,0,.01,0,.02,0,.03,0,.01,0,.02,0,.03,0,.02,0,.04,0,.06,0,.02,0,.04,0,.06,0,.03,0,.05,0,.08,0,.05,0,.1-.01,.15-.03,.07-.02,.11-.05,.13-.12,.01-.04,0-.09-.02-.12Z"/><path class="cls-2" d="M63.54,29.55s0,.02,0,.02c-.03,.01-.06,.02-.08,.03-.05,.02-.07,.03-.12,.04,0,0,0,0,0,0h0s0-.02,0-.03c-.01-.04-.03-.08-.04-.11-.02-.08-.05-.16-.09-.26,0-.02-.01-.04-.02-.06,0,0,0-.02-.01-.03h0s-.02-.01-.02-.01c-.02,0-.24,.08-.33,.11-.04,.02-.07,.03-.11,.04-.02,0-.03,.01-.05,.02-.02,0-.04,.01-.06,.02-.03,.01-.07,.02-.1,.04,0,0-.02,0-.02,.01,0,0,0,0-.01,0h-.02s0,.02,0,.02c0,0,0,.01,0,.02,0,.01,0,.02,0,.03,.01,.04,.03,.08,.04,.12l.05,.15s.01,.04,.02,.06c.01,.03,.02,.07,.03,.1,0,.01,0,.02,0,.03,0,0-.02,.01-.03,.02-.03,0-.07,.02-.1,.03-.02,0-.05,.02-.07,.02,0,0-.01,0-.02,0,0,0,0,0,0,0,0,0-.01-.02-.02-.03h0s-.02-.06-.03-.09c-.01-.03-.02-.07-.03-.1h0c-.02-.08-.05-.15-.07-.22-.02-.05-.03-.09-.05-.14-.03-.07-.05-.15-.08-.23-.03-.09-.06-.18-.09-.26-.01-.04-.02-.07-.04-.11,0-.03,0-.03,0-.03,.01,0,.12-.04,.2-.07h0s0,0,0,0c0,0,0,0,0,0,0,0,0,0,0,0,0,0,0,0,0,.01,0,0,0,0,0,.01l.02,.07c.02,.07,.05,.14,.07,.21,.01,.03,.02,.06,.03,.09v.03s.01,.01,.02,.02c0,0,0,0,0,0v.02s.02,0,.02,0c.13-.04,.65-.23,.67-.24h.02s0-.02,0-.02c0,0-.03-.1-.04-.13,0,0-.03-.1-.05-.14,0-.02-.01-.03-.02-.04s-.01-.03-.02-.04c0-.02-.02-.05-.03-.07,0-.02,0-.02,.01-.03,.01,0,.12-.04,.16-.06,.04-.01,.04-.01,.06,.02,0,.02,.02,.05,.02,.07,0,.02,.01,.04,.02,.06,0,.02,.02,.05,.03,.07,.02,.07,.05,.14,.07,.2,.05,.11,.21,.61,.25,.73Z"/><path class="cls-2" d="M64.09,29.22s0,0,0,.01c0,0,0,0,0,.01,0,0,0,0,0,0-.03,.02-.09,.05-.13,.07-.02,.01-.04,.02-.05,.03h0s0,0,0,0c0,0-.01,0-.01,0,0,0,0,0,0,0,0,0,0,0,0,0-.02-.03-.03-.06-.05-.1-.04-.08-.25-.45-.31-.56-.02-.04-.05-.09-.07-.14-.03-.05-.06-.1-.08-.15-.01-.03-.03-.05-.04-.08h0s-.01-.03-.02-.04c0-.01,0-.02,0-.03,0,0,.01,0,.02-.01h0s.05-.03,.07-.04c.02,0,.04-.02,.06-.03,0,0,.02,0,.03-.01h.01s0,0,0,0c.03,.05,.05,.09,.07,.14,.01,.03,.28,.51,.32,.58,.01,.03,.18,.34,.19,.36Z"/><path class="cls-2" d="M65.21,28.05s0,0,0,0c0,0,0,.02,0,.02v.02c0,.08,0,.16-.02,.24h0s-.02,.08-.04,.11c-.03,.07-.08,.13-.13,.18-.02,.02-.05,.05-.08,.07-.05,.05-.12,.08-.21,.11-.06,.02-.11,.03-.19,.04-.06,0-.11,0-.16-.01-.09-.03-.16-.06-.21-.11,0,0,0,0-.02-.01-.07-.04-.13-.11-.18-.2-.04-.07-.06-.14-.07-.21,0-.01,0-.03,0-.04,0-.02,0-.05,0-.08,0-.1,0-.19,.04-.27,.04-.09,.13-.19,.23-.27,.02-.01,.04-.03,.05-.04,.1-.07,.21-.11,.33-.12,.02,0,.03,0,.05,0,.01,0,.03,0,.04,0,.06,0,.11,0,.16,.02,.02,0,.02,0,.02,.03-.01,.06-.02,.11-.04,.17v.04s-.01,0-.01,.01c-.04-.03-.08-.03-.12-.03-.12,0-.21,.02-.3,.07-.03,.02-.07,.04-.11,.08-.07,.07-.11,.17-.11,.28,0,.14,.06,.27,.15,.35,.05,.04,.11,.07,.17,.09,.07,.02,.13,.01,.2,0,.06-.02,.11-.05,.17-.09,.05-.04,.09-.09,.13-.16,.03-.06,.05-.12,.05-.2h0s0-.04,0-.05c0,0,0,0,0-.01h.01c.05-.01,.11-.03,.16-.04,.01,0,.02,0,.04,0Z"/><path class="cls-2" d="M66.62,26.14s.05,.07,.06,.11c0,.03,.02,.05,.02,.08,0,0,0,.02,0,.03,.01,.04,.03,.09,.02,.14,0,.05-.02,.16-.05,.2-.03,.05-.04,.07-.07,.11,0,.01-.02,.03-.03,.05-.02,.04-.05,.07-.07,.1-.02,.03-.04,.06-.06,.09,0,.02-.02,.03-.03,.05-.01,.02-.03,.04-.04,.06-.01,.02-.02,.04-.04,.06-.01,.02-.03,.04-.04,.06,0,0,0,.01,0,.02-.02,.03-.04,.06-.06,.09,0,0-.01,0-.02,0-.01,0-.02-.02-.04-.02,0,0-.01,0-.02-.01,0,0-.01,0-.02-.01-.02-.01-.03-.02-.05-.03-.1-.05-.2-.11-.29-.17-.02-.01-.04-.03-.06-.04-.01,0-.02-.02-.04-.02-.04-.02-.07-.04-.11-.07-.05-.04-.11-.07-.18-.12-.07-.05-.14-.09-.2-.12-.03-.01-.04-.02-.04-.03,0,0,.01-.03,.02-.04,.03-.05,.06-.1,.09-.14,.03-.05,.07-.11,.1-.16,0,0,.01-.02,.02-.03,.01-.02,.02-.03,.03-.04,.06-.09,.06-.1,.12-.19,.04-.05,.1-.13,.14-.15,.08-.05,.15-.08,.23-.09,0,0,.02,0,.03,0,0,0,.02,0,.03,0,.05,0,.1,0,.16,0,.08,0,.15,.03,.23,.08,0,0,.01,0,.02,.01,0,0,.02,.01,.03,.02,.07,.04,.13,.1,.19,.17Zm-.35,0c-.07-.04-.16-.06-.25-.06-.07,0-.13,.02-.18,.05-.01,0-.02,.01-.03,.02l-.02,.02s-.05,.05-.07,.08c-.06,.08-.12,.16-.17,.24,0,.01-.02,.03-.03,.04h0s-.03,.06-.04,.09v.02s0,0,0,0c0,0,0,0,.01,0,0,0,.02,.01,.03,.02,.03,.02,.05,.03,.08,.05,.05,.03,.1,.06,.15,.1,.1,.06,.22,.14,.38,.23,0,0,.01,0,.02,.01,0,0,0,0,0,0h.01s0,0,0,0c0,0,0,0,0,0,0,0,0,0,.01-.01,.02-.03,.04-.07,.07-.1,.02-.03,.05-.07,.07-.1h0s.02-.05,.04-.07h0s.03-.06,.04-.09v-.02c.06-.08,.08-.15,.05-.24-.03-.12-.11-.21-.22-.27Z"/><path class="cls-2" d="M67.43,24.88s.04,.03,.03,.04c0,.02-.04,.12-.09,.25-.09,.25-.21,.6-.23,.65,0,.03-.02,.06-.03,.09,0,0,0,.02-.01,.03,0,0,0,0-.02,0h0s-.04-.01-.05-.02c-.03-.01-.07-.02-.1-.03-.06-.02-.13-.04-.19-.06-.06-.02-.11-.03-.17-.05-.03,0-.06-.02-.08-.03-.01,0-.02,0-.04-.01,0,0,0,0,0,0,0,0,0,0-.01,0-.03,0-.06-.02-.09-.03-.07-.02-.15-.05-.22-.07-.04-.01-.09-.03-.13-.04-.03,0-.05-.01-.08-.02-.02,0-.03-.01-.02-.04,.02-.05,.03-.1,.05-.15v-.02c.06-.14,.23-.61,.26-.71,0-.02,0-.03,.01-.04,0-.01,0-.02,.01-.04,0,0,0-.01,0-.02,0,0,0-.01,0-.02,.01,0,.04,.01,.06,.02,.04,.01,.06,.02,.07,.02,.02,0,.04,.01,.06,.02,0,0,0,.01,0,.02,0,0,0,0,0,0,0,.02-.02,.04-.02,.06-.01,.04-.03,.08-.04,.11-.02,.08-.05,.15-.08,.23-.02,.06-.05,.13-.07,.2,0,.03-.02,.06-.03,.09l-.02,.05h0s0,.01,0,.01c0,0,0,.01,.02,.01,.06,.02,.12,.04,.19,.06h.04s0,.01,0,.01c.02,0,.03-.03,.03-.04h0s.04-.1,.07-.18c.05-.15,.12-.34,.14-.42,0,0,0-.01,0-.01,0,0,0,0,.01,0,0,0,0,0,.01,0,.05,.02,.09,.03,.13,.04,0,0,.01,0,.02,0,.02,.01,.02,.02,.02,.03-.03,.08-.06,.17-.09,.25-.02,.05-.04,.11-.06,.16-.02,.06-.04,.12-.07,.19,0,.01,0,.02,0,.03,0,0,0,0,0,.01v.02s0,0,0,0c.05,.03,.28,.09,.28,.09h0s0,0,0,0c0,0,0,0,.01-.01,.01-.03,.03-.07,.04-.1,.03-.07,.06-.14,.08-.22,.02-.06,.04-.13,.07-.19,.01-.03,.02-.06,.03-.09v-.02c.03-.05,.05-.11,.06-.17,0,0,0,0,0,0,0,0,0,0,0,0,.04,.01,.09,.02,.15,.04,0,0,.02,0,.03,.01Z"/><path class="cls-2" d="M67.36,23.33s.02,0,.03,.01c.15,.06,.24,.2,.27,.35,0,.01,0,.02,0,.04,0,.11,0,.19-.01,.27-.03,.18-.1,.33-.24,.51,0,0-.02,.02-.03,.04-.01,.01-.02,.02-.03,.03,0,.01-.01,.01-.01,.01,0,0,0,0-.01-.01,0-.01-.02-.02-.02-.03-.03-.06-.06-.12-.08-.16,0,0,0,0,0,0,0,0,0,0,0,0,.15-.13,.22-.3,.23-.52,0-.13-.08-.32-.22-.27-.03,.01-.06,.03-.08,.06-.04,.07-.05,.16-.07,.24,0,.06-.03,.11-.04,.17,0,.02-.01,.05-.02,.07-.02,.08-.05,.15-.08,.2-.06,.1-.17,.15-.29,.15-.13,0-.21-.09-.24-.16-.04-.08-.07-.16-.08-.24-.02-.29,.08-.52,.18-.63,.02-.02,.03-.04,.05-.05,.02-.02,.03-.03,.05-.05,0,0,.01-.01,.02-.02,0,0,0,0,0,0,0,.01,.01,.02,.02,.04h0s.03,.06,.04,.09l.02,.04s.02,.03,0,.05c-.02,.02-.04,.05-.05,.07,0,.01-.02,.02-.03,.03-.04,.05-.06,.11-.08,.16-.02,.07-.03,.14-.03,.2,0,.05,.01,.13,.06,.18,.03,.03,.07,.05,.11,.05,.03,0,.05-.02,.07-.04,.04-.06,.06-.12,.07-.19h0s.01-.08,.02-.11c.05-.25,.15-.63,.49-.54Z"/><path class="cls-2" d="M67.65,22.8h.01s0,0,.01,0c0,0,0,0,0,0,0,.04,0,.1,0,.15,0,.02,0,.04,0,.06h0s0,.01,0,.01c0,0,0,.01-.01,.01,0,0,0,0,0,0,0,0,0,0,0,0-.04,0-.07,0-.11,0-.09,0-.52,.03-.64,.04-.05,0-.1,0-.16,0-.06,0-.12,0-.18,0-.03,0-.06,0-.09,0h-.01s-.03,0-.04,0c-.02,0-.02,0-.03-.02,0,0,0-.01,0-.02h0s0-.06,0-.09c0-.02,0-.05,0-.07,0,0,0-.02,0-.03h0s0-.01,0-.01c.06,0,.11,0,.16,0,.03,0,.58-.03,.67-.04,.03,0,.39-.02,.41-.02Z"/><path class="cls-2" d="M66.91,21.27h0c.15,0,.29,.02,.39,.09,.3,.21,.42,.67,.17,.98,0,.01-.02,.02-.03,.04-.15,.17-.38,.25-.61,.23-.13-.01-.24-.06-.33-.14-.09-.08-.16-.18-.2-.3-.01-.04-.02-.07-.03-.11,0-.02,0-.04,0-.06,0-.17,.03-.3,.11-.42,0-.01,.02-.03,.03-.04,.01-.02,.03-.04,.04-.06s.03-.04,.05-.05c.02-.02,.03-.02,.05,0,.01,.01,.02,.02,.03,.03,.02,.02,.04,.04,.07,.06,0,0,.02,.02,.02,.03,0,0,0,0,0,0-.21,.19-.2,.41-.17,.51,.05,.19,.2,.31,.38,.31,.1,0,.19-.02,.27-.05,.12-.06,.19-.18,.21-.31,.02-.14-.02-.26-.09-.38-.04-.07-.15-.13-.23-.15h-.03s0,.02,0,.02c0,0,0,.03,0,.06,0,.05,.06,.33,.06,.34,0,0,0,.01,0,.01,0,0,0,0-.01,0,0,0,0,0-.01,0-.03,0-.06,.01-.09,.02,0,0-.01,0-.02,0,0,0-.02,0-.02,0-.02,0-.03,0-.03-.02,0-.02,0-.04,0-.05,0-.02,0-.03,0-.05-.03-.16-.07-.36-.1-.53,0,0,0-.02,0-.03,0,0,.02,0,.03,0,.03,0,.07,0,.1-.01Z"/><path class="cls-2" d="M66.79,19.71s.03-.01,.04-.02v.03c.04,.05,.08,.14,.09,.17,0,.01,0,.02-.01,.04l-.02,.03c-.08,.15-.16,.3-.24,.45-.06,.12-.3,.55-.3,.55l-.03,.05,.05-.02s.14-.07,.19-.1c.02,0,.03-.02,.03-.02,.06-.03,.11-.06,.17-.08,.06-.03,.11-.06,.17-.08,.04-.02,.18-.09,.2-.1,.03-.01,.05-.02,.08-.04h.02s0,0,0,0c.01,.03,.02,.05,.03,.08,.02,.04,.03,.07,.05,.11h0s0,.02,0,.02c0,0,0,0,0,0-.02,0-.03,.02-.04,.02-.03,.01-.39,.18-.73,.34l-.05,.02s-.05,.02-.07,.04c-.02,0-.03,.02-.05,.03-.05,.03-.11,.05-.16,.08h-.02s-.01,.02-.02,.02c0,0-.02,0-.02,0,0,0,0,0,0,0l-.03-.07c-.02-.05-.05-.1-.07-.15h0s0,0,0,0c-.01-.02-.01-.03,0-.05,0,0,.01-.03,.03-.05,.03-.06,.09-.17,.11-.2,.08-.12,.33-.56,.37-.64,0,0,0-.01,.01-.02,.01-.02,.03-.04,.03-.06v-.03s-.03,0-.03,0c-.02,0-.12,.05-.21,.1l-.04,.02c-.06,.03-.15,.08-.21,.11-.03,.01-.1,.05-.17,.08-.07,.03-.14,.06-.16,.07,0,0-.01,0-.02,0-.03-.07-.06-.13-.09-.19,0-.01,0-.01,0-.02,0,0,.07-.03,.13-.06,.08-.03,.16-.07,.21-.1,.05-.03,.1-.05,.16-.08,.02-.01,.04-.02,.06-.03,.01,0,.04-.02,.07-.03,.11-.06,.31-.15,.36-.18,.04-.02,.08-.04,.12-.06Z"/></g></svg>